<svg width="1200" height="800" xmlns="http://www.w3.org/2000/svg">
  <!-- Background Gradient -->
  <defs>
    <linearGradient id="bgGradient" x1="0%" y1="0%" x2="100%" y2="100%">
      <stop offset="0%" style="stop-color:#6366f1;stop-opacity:0.2" />
      <stop offset="100%" style="stop-color:#8b5cf6;stop-opacity:0.3" />
    </linearGradient>
    <linearGradient id="iconGradient" x1="0%" y1="0%" x2="100%" y2="100%">
      <stop offset="0%" style="stop-color:#6366f1;stop-opacity:1" />
      <stop offset="100%" style="stop-color:#8b5cf6;stop-opacity:1" />
    </linearGradient>
  </defs>

  <!-- Background -->
  <rect width="1200" height="800" fill="url(#bgGradient)"/>

  <!-- Website Mockup -->
  <g transform="translate(100, 150)">
    <!-- Browser Window -->
    <rect x="0" y="0" width="1000" height="500" rx="12" fill="white" opacity="0.9"/>

    <!-- Browser Header -->
    <rect x="0" y="0" width="1000" height="40" rx="12" fill="#f3f4f6"/>
    <circle cx="20" cy="20" r="6" fill="#ef4444"/>
    <circle cx="40" cy="20" r="6" fill="#fbbf24"/>
    <circle cx="60" cy="20" r="6" fill="#10b981"/>

    <!-- Content Lines -->
    <rect x="40" y="80" width="600" height="30" rx="6" fill="url(#iconGradient)" opacity="0.3"/>
    <rect x="40" y="130" width="400" height="15" rx="4" fill="#d1d5db"/>
    <rect x="40" y="160" width="500" height="15" rx="4" fill="#d1d5db"/>

    <!-- Cards -->
    <rect x="40" y="220" width="280" height="200" rx="8" fill="#f3f4f6"/>
    <rect x="340" y="220" width="280" height="200" rx="8" fill="#f3f4f6"/>
    <rect x="640" y="220" width="280" height="200" rx="8" fill="#f3f4f6"/>
  </g>

  <!-- Globe Icon -->
  <g transform="translate(550, 350)">
    <circle cx="0" cy="0" r="80" fill="url(#iconGradient)" opacity="0.15"/>
    <path d="M 0,-60 A 60,60 0 0,1 0,60 M 0,-60 A 60,60 0 0,0 0,60 M -60,0 L 60,0 M 0,-60 L 0,60" stroke="url(#iconGradient)" stroke-width="3" fill="none" opacity="0.6"/>
  </g>
</svg>
